<?xml version="1.0" encoding="utf-8"?>
<!-- Generator: Adobe Illustrator 23.0.2, SVG Export Plug-In . SVG Version: 6.00 Build 0)  -->
<svg version="1.1" id="Layer_1" xmlns="http://www.w3.org/2000/svg" xmlns:xlink="http://www.w3.org/1999/xlink" x="0px" y="0px"
	 viewBox="0 0 233.12 62.48" style="enable-background:new 0 0 233.12 62.48;" xml:space="preserve">
<style type="text/css">
	.st0{fill:#0033A1;}
</style>
<g>
	<g>
		<g>
			<polygon class="st0" points="2.79,59.41 25.95,59.41 25.95,50.28 12.14,50.28 12.14,34.44 22.09,34.44 22.09,25.62 12.14,25.62 
				12.14,11.83 25.95,11.83 25.95,3.01 2.79,3.01 			"/>
			<polygon class="st0" points="44.22,3.01 34.94,3.01 34.94,59.41 57.53,59.41 57.53,50.59 44.22,50.59 			"/>
			<polygon class="st0" points="72.41,3.01 63.13,3.01 63.13,59.41 85.72,59.41 85.72,50.59 72.41,50.59 			"/>
			<polygon class="st0" points="91.32,59.41 114.49,59.41 114.49,50.28 100.68,50.28 100.68,34.44 110.63,34.44 110.63,25.62 
				100.68,25.62 100.68,11.83 114.49,11.83 114.49,3.01 91.32,3.01 			"/>
			<path class="st0" d="M142.74,35.05c0,0.39,0.03,0.9,0.09,1.54c-0.01-0.03-0.02-0.05-0.03-0.08l-10.97-33.5h-8.37v56.4h8.74V29.94
				c0-0.53-0.06-1.3-0.19-2.35c0.03,0.08,0.05,0.15,0.08,0.23c0.08,0.27,0.15,0.48,0.2,0.59l10.55,31h8.71V3.01h-8.82V35.05z"/>
			<path class="st0" d="M175.52,1.82c-4.3,0-7.72,1.3-10.17,3.85c-2.45,2.55-3.69,6.11-3.69,10.58v28.5c0,5.12,1.16,9.08,3.46,11.77
				c2.31,2.71,5.7,4.08,10.09,4.08c4.33,0,7.72-1.38,10.08-4.1c2.35-2.7,3.54-6.58,3.54-11.53v-28.5c0-4.49-1.21-8.09-3.58-10.71
				C182.86,3.15,179.59,1.82,175.52,1.82z M171.18,15.71c0-1.83,0.35-3.2,1.03-4.09c0.67-0.87,1.65-1.29,3-1.29
				c1.35,0,2.33,0.42,3,1.29c0.69,0.89,1.03,2.26,1.03,4.09v31.04c0,1.83-0.35,3.21-1.04,4.11c-0.67,0.88-1.65,1.31-3,1.31
				c-1.35,0-2.33-0.43-3-1.31c-0.69-0.9-1.04-2.28-1.04-4.11V15.71z"/>
			<path class="st0" d="M223.18,38.03c-1.24-2.46-3.88-5.67-7.84-9.52l-0.5-0.5c-5.28-5.1-7.96-9.27-7.96-12.37
				c0-1.46,0.39-2.63,1.15-3.49c0.76-0.86,1.76-1.27,3.04-1.27c1.39,0,2.38,0.47,3.04,1.44c0.69,1.01,1.11,2.75,1.26,5.15l0.03,0.42
				l9.17-1.3l-0.03-0.36c-0.34-4.3-1.71-7.76-4.07-10.29c-2.37-2.55-5.46-3.84-9.17-3.84c-3.81,0-7.08,1.39-9.72,4.14
				c-2.64,2.74-3.97,6.17-3.97,10.17c0,2.77,0.66,5.43,1.97,7.89c1.29,2.45,4.24,5.98,8.76,10.5l0.81,0.81
				c4.52,4.49,6.81,8.18,6.81,10.95c0,1.5-0.45,2.72-1.35,3.63c-0.91,0.92-2.06,1.36-3.53,1.36c-1.67,0-2.9-0.61-3.76-1.85
				c-0.88-1.28-1.4-3.32-1.55-6.05l-0.02-0.43l-8.96,1.35l0.01,0.35c0.21,4.89,1.61,8.78,4.16,11.56c2.57,2.79,6.07,4.2,10.42,4.2
				c3.94,0,7.24-1.35,9.82-4.02c2.57-2.67,3.88-6.12,3.88-10.25C225.07,43.33,224.43,40.51,223.18,38.03z"/>
		</g>
		<g>
			<path class="st0" d="M227.15,2.08c0.5,0,0.98,0.09,1.43,0.28c0.45,0.18,0.85,0.46,1.2,0.82c0.34,0.34,0.6,0.73,0.78,1.17
				c0.18,0.44,0.27,0.9,0.27,1.39c0,0.51-0.09,0.98-0.27,1.42c-0.18,0.44-0.45,0.83-0.8,1.17c-0.36,0.35-0.76,0.61-1.2,0.8
				c-0.45,0.18-0.91,0.28-1.39,0.28c-0.49,0-0.95-0.09-1.4-0.28c-0.45-0.19-0.85-0.46-1.2-0.82c-0.35-0.35-0.61-0.74-0.79-1.18
				c-0.18-0.44-0.27-0.9-0.27-1.38c0-0.49,0.1-0.95,0.28-1.41c0.19-0.45,0.46-0.86,0.82-1.21c0.34-0.34,0.73-0.6,1.16-0.78
				C226.19,2.17,226.65,2.08,227.15,2.08z M227.15,2.63c-0.43,0-0.82,0.08-1.19,0.22c-0.37,0.15-0.69,0.37-0.99,0.66
				c-0.3,0.31-0.54,0.66-0.7,1.04c-0.16,0.38-0.24,0.78-0.24,1.19c0,0.41,0.08,0.8,0.23,1.18c0.15,0.37,0.38,0.71,0.67,1
				c0.3,0.3,0.63,0.53,1.01,0.69c0.38,0.16,0.76,0.24,1.16,0.24c0.43,0,0.83-0.08,1.22-0.23c0.38-0.15,0.73-0.38,1.04-0.68
				c0.29-0.28,0.52-0.61,0.68-0.98c0.16-0.37,0.24-0.76,0.24-1.17c0-0.44-0.07-0.85-0.22-1.22c-0.15-0.38-0.37-0.72-0.66-1.02
				c-0.31-0.3-0.65-0.53-1.03-0.69C227.98,2.71,227.58,2.63,227.15,2.63z M225.66,3.62h1.58c0.57,0,1,0.09,1.3,0.28
				c0.29,0.19,0.44,0.47,0.44,0.83c0,0.3-0.08,0.55-0.24,0.75c-0.16,0.2-0.38,0.33-0.68,0.39l0.92,1.86h-0.99l-0.81-1.72h-0.64v1.72
				h-0.88V3.62z M226.54,4.18v1.29h0.58c0.33,0,0.57-0.05,0.73-0.15c0.15-0.1,0.23-0.26,0.23-0.48c0-0.23-0.08-0.4-0.24-0.5
				c-0.16-0.11-0.41-0.16-0.75-0.16H226.54z"/>
		</g>
	</g>
</g>
</svg>
