<svg width="230" height="22" viewBox="0 0 230 22" fill="none" xmlns="http://www.w3.org/2000/svg">
<path fill-rule="evenodd" clip-rule="evenodd" d="M0 1.04297V21.1749H14.2107V16.6475H5.55522V1.04297H0Z" fill="black"/>
<path fill-rule="evenodd" clip-rule="evenodd" d="M22.5 21.1749H27.2369V1.04297H22.5V21.1749Z" fill="black"/>
<path fill-rule="evenodd" clip-rule="evenodd" d="M50.2131 21.1749L44.7143 13.5989L43.3003 15.2891V21.1749H37.8955V1.04297H43.3003V9.31299L49.7417 1.04297H56.4034L48.2647 10.4598L56.8432 21.1749H50.2131Z" fill="black"/>
<path fill-rule="evenodd" clip-rule="evenodd" d="M65.1318 21.1749V1.04297H80.5268V5.57055H70.547V8.70933H80.3066V13.2367H70.547V16.6473H80.5268V21.1749H65.1318Z" fill="black"/>
<path fill-rule="evenodd" clip-rule="evenodd" d="M88.8174 21.1749V1.04297H94.3726V16.6473H103.028V21.1749H88.8174Z" fill="black"/>
<path fill-rule="evenodd" clip-rule="evenodd" d="M112.5 21.1749H117.237V1.04297H112.5V21.1749Z" fill="black"/>
<path fill-rule="evenodd" clip-rule="evenodd" d="M141.598 21.1749V13.0858H133.146V21.1749H127.898V1.04297H133.146V8.55848H141.598V1.04297H146.846V21.1749H141.598Z" fill="black"/>
<mask id="mask0_50:3776" style="mask-type:alpha" maskUnits="userSpaceOnUse" x="152" y="0" width="23" height="22">
<path fill-rule="evenodd" clip-rule="evenodd" d="M152.977 0.046875H174.938V21.1781H152.977V0.046875Z" fill="white"/>
</mask>
<g mask="url(#mask0_50:3776)">
<path fill-rule="evenodd" clip-rule="evenodd" d="M169.548 10.6119C169.548 7.27375 167.361 4.70117 163.973 4.70117C160.554 4.70117 158.367 7.27375 158.367 10.6119C158.367 13.9195 160.554 16.5226 163.973 16.5226C167.361 16.5226 169.548 13.9195 169.548 10.6119ZM152.977 10.6125C152.977 4.39562 157.689 0.046875 163.973 0.046875C170.256 0.046875 174.938 4.39562 174.938 10.6125C174.938 16.8296 170.256 21.1783 163.973 21.1783C157.689 21.1783 152.977 16.8296 152.977 10.6125Z" fill="black"/>
</g>
<mask id="mask1_50:3776" style="mask-type:alpha" maskUnits="userSpaceOnUse" x="180" y="0" width="23" height="22">
<path fill-rule="evenodd" clip-rule="evenodd" d="M180.883 0.0449219H202.845V21.1761H180.883V0.0449219Z" fill="white"/>
</mask>
<g mask="url(#mask1_50:3776)">
<path fill-rule="evenodd" clip-rule="evenodd" d="M197.455 10.6099C197.455 7.27179 195.268 4.69922 191.879 4.69922C188.461 4.69922 186.273 7.27179 186.273 10.6099C186.273 13.9175 188.461 16.5207 191.879 16.5207C195.268 16.5207 197.455 13.9175 197.455 10.6099ZM180.883 10.6105C180.883 4.39367 185.596 0.0449219 191.879 0.0449219C198.163 0.0449219 202.845 4.39367 202.845 10.6105C202.845 16.8276 198.163 21.1764 191.879 21.1764C185.596 21.1764 180.883 16.8276 180.883 10.6105Z" fill="black"/>
</g>
<path fill-rule="evenodd" clip-rule="evenodd" d="M224.166 10.579C224.166 7.42468 222.256 4.97461 218.498 4.97461H215.141V16.2139H218.467C222.071 16.2139 224.166 13.611 224.166 10.579ZM209.84 20.8081V0.380859H218.464C224.933 0.380859 229.584 4.23959 229.584 10.5792C229.584 16.9188 224.933 20.8081 218.495 20.8081H209.84Z" fill="black"/>
</svg>
