<?xml version="1.0" encoding="utf-8"?>
<!-- Generator: Adobe Illustrator 22.0.1, SVG Export Plug-In . SVG Version: 6.00 Build 0)  -->
<svg version="1.1" id="Layer_1" xmlns="http://www.w3.org/2000/svg" xmlns:xlink="http://www.w3.org/1999/xlink" x="0px" y="0px"
	 viewBox="0 0 282 86.2" style="enable-background:new 0 0 282 86.2;" xml:space="preserve">
<style type="text/css">
	.st0{fill:#232F3E;}
	.st1{fill-rule:evenodd;clip-rule:evenodd;fill:#232F3E;}
</style>
<g>
	<g>
		<path class="st0" d="M13.3,42.5c-5.4,0-8.1-2.7-8.1-8.1V17.7H1.1c-0.8,0-1.1-0.4-1.1-1.1v-1.4c0-0.4,0.1-0.7,0.3-0.9
			c0.2-0.2,0.5-0.3,1-0.4l4.2-0.5l0.7-7c0.1-0.8,0.5-1.1,1.2-1.1h2.4c0.8,0,1.1,0.4,1.1,1.1v6.9h7.4c0.8,0,1.1,0.4,1.1,1.1v2.2
			c0,0.8-0.4,1.1-1.1,1.1h-7.4v16.4c0,1.4,0.3,2.4,0.9,3s1.7,0.9,3.2,0.9c0.7,0,1.6-0.1,2.7-0.3c0.6-0.1,0.9-0.2,1.1-0.2
			c0.3,0,0.5,0.1,0.6,0.3c0.1,0.2,0.2,0.4,0.2,0.8v1.5c0,0.5-0.1,0.9-0.2,1.1c-0.2,0.2-0.5,0.4-0.9,0.6C17,42.2,15.3,42.5,13.3,42.5
			z"/>
		<path class="st0" d="M25.4,42.1c-0.8,0-1.1-0.4-1.1-1.1V1.1c0-0.8,0.4-1.1,1.1-1.1h3.4c0.8,0,1.1,0.4,1.1,1.1v15.1
			c3.6-2.5,7.3-3.8,11-3.8c2.8,0,4.9,0.7,6.3,2.2c1.4,1.5,2.2,3.6,2.2,6.3v20c0,0.8-0.4,1.1-1.1,1.1h-3.4c-0.8,0-1.1-0.4-1.1-1.1
			V22.8c0-2-0.4-3.5-1.2-4.4c-0.8-0.9-2.1-1.4-3.8-1.4c-3,0-5.9,1-8.8,2.9v21.1c0,0.8-0.4,1.1-1.1,1.1H25.4z"/>
		<path class="st0" d="M69.2,42.9c-4.7,0-8.2-1.3-10.6-3.9c-2.4-2.6-3.6-6.4-3.6-11.4c0-4.8,1.2-8.6,3.6-11.2c2.4-2.7,5.7-4,10-4
			c3.6,0,6.4,1,8.3,3c1.9,2,2.9,4.9,2.9,8.6c0,1.2-0.1,2.4-0.3,3.7c-0.1,0.5-0.2,0.8-0.4,0.9s-0.4,0.2-0.8,0.2H60.5
			c0.1,3.3,0.9,5.7,2.4,7.2c1.5,1.6,3.9,2.3,7.1,2.3c1.1,0,2.2-0.1,3.3-0.2c1-0.2,2.4-0.5,4-1c0.3-0.1,0.5-0.1,0.7-0.2
			c0.2-0.1,0.4-0.1,0.5-0.1c0.5,0,0.7,0.3,0.7,1v1.6c0,0.5-0.1,0.8-0.2,1.1c-0.2,0.2-0.5,0.4-1,0.7c-1.1,0.5-2.5,0.9-4.1,1.2
			C72.3,42.8,70.8,42.9,69.2,42.9z M74.6,25.1c0-0.3,0.1-0.8,0.1-1.5c0-2.3-0.5-4.1-1.6-5.2s-2.7-1.8-4.7-1.8
			c-2.4,0-4.2,0.7-5.6,2.1c-1.3,1.4-2.1,3.5-2.3,6.3H74.6z"/>
		<path class="st0" d="M104.2,42.9c-3.2,0-6-0.5-8.6-1.6c-0.5-0.2-0.8-0.4-0.9-0.6c-0.2-0.2-0.3-0.6-0.3-1.1V38c0-0.7,0.2-1,0.7-1
			c0.3,0,0.7,0.1,1.4,0.3c2.5,0.8,5.1,1.2,7.8,1.2c1.9,0,3.3-0.4,4.2-1.1c1-0.7,1.5-1.8,1.5-3.1c0-0.9-0.3-1.6-0.9-2.2
			s-1.7-1.1-3.2-1.7l-4.8-1.8c-4.2-1.6-6.3-4.2-6.3-8c0-2.5,1-4.5,2.9-6c1.9-1.5,4.4-2.3,7.5-2.3c2.5,0,4.9,0.4,7.2,1.3
			c0.5,0.2,0.8,0.4,1,0.6c0.2,0.2,0.3,0.6,0.3,1.1v1.5c0,0.7-0.2,1-0.7,1c-0.3,0-0.7-0.1-1.3-0.3c-2-0.6-4.1-0.9-6.1-0.9
			c-3.6,0-5.5,1.2-5.5,3.7c0,1,0.3,1.8,0.9,2.3c0.6,0.6,1.8,1.2,3.6,1.9l4.4,1.7c2.2,0.9,3.8,1.9,4.8,3.1c1,1.2,1.5,2.7,1.5,4.6
			c0,2.7-1,4.8-3,6.4C110.2,42.1,107.5,42.9,104.2,42.9z"/>
		<path class="st0" d="M121.4,53.8c-0.8,0-1.1-0.4-1.1-1.1V14.4c0-0.8,0.4-1.1,1.1-1.1h2.5c0.8,0,1.2,0.4,1.3,1.1l0.3,1.8
			c2.9-2.5,6.1-3.8,9.6-3.8c3.7,0,6.6,1.3,8.7,4c2.1,2.7,3.2,6.3,3.2,10.9c0,4.7-1.1,8.4-3.4,11.2c-2.2,2.8-5.2,4.2-8.9,4.2
			c-3.4,0-6.3-1.1-8.8-3.4v13.3c0,0.8-0.4,1.1-1.1,1.1H121.4z M133.4,38.1c5.2,0,7.8-3.5,7.8-10.6c0-3.6-0.6-6.3-1.9-8
			c-1.3-1.7-3.2-2.6-5.8-2.6c-2.7,0-5.2,0.9-7.6,2.6v15.9C128.3,37.2,130.8,38.1,133.4,38.1z"/>
		<path class="st0" d="M153.9,42.1c-0.8,0-1.1-0.4-1.1-1.1V1.1c0-0.8,0.4-1.1,1.1-1.1h3.4c0.8,0,1.1,0.4,1.1,1.1v15.1
			c3.6-2.5,7.3-3.8,11-3.8c2.8,0,4.9,0.7,6.3,2.2c1.4,1.5,2.2,3.6,2.2,6.3v20c0,0.8-0.4,1.1-1.1,1.1h-3.4c-0.8,0-1.1-0.4-1.1-1.1
			V22.8c0-2-0.4-3.5-1.2-4.4c-0.8-0.9-2.1-1.4-3.8-1.4c-3,0-5.9,1-8.8,2.9v21.1c0,0.8-0.4,1.1-1.1,1.1H153.9z"/>
		<path class="st0" d="M197.6,42.9c-4.7,0-8.2-1.3-10.6-3.9c-2.4-2.6-3.6-6.4-3.6-11.4c0-4.8,1.2-8.6,3.6-11.2c2.4-2.7,5.7-4,10-4
			c3.6,0,6.4,1,8.3,3c1.9,2,2.9,4.9,2.9,8.6c0,1.2-0.1,2.4-0.3,3.7c-0.1,0.5-0.2,0.8-0.4,0.9c-0.2,0.2-0.4,0.2-0.8,0.2h-17.9
			c0.1,3.3,0.9,5.7,2.4,7.2c1.5,1.6,3.9,2.3,7.1,2.3c1.1,0,2.2-0.1,3.3-0.2c1-0.2,2.4-0.5,4-1c0.3-0.1,0.5-0.1,0.7-0.2
			c0.2-0.1,0.4-0.1,0.5-0.1c0.5,0,0.7,0.3,0.7,1v1.6c0,0.5-0.1,0.8-0.2,1.1c-0.2,0.2-0.5,0.4-1,0.7c-1.1,0.5-2.5,0.9-4.1,1.2
			C200.8,42.8,199.2,42.9,197.6,42.9z M203.1,25.1c0-0.3,0.1-0.8,0.1-1.5c0-2.3-0.5-4.1-1.6-5.2s-2.7-1.8-4.7-1.8
			c-2.4,0-4.2,0.7-5.6,2.1c-1.3,1.4-2.1,3.5-2.3,6.3H203.1z"/>
		<path class="st0" d="M215.3,42.1c-0.8,0-1.1-0.4-1.1-1.1V14.4c0-0.8,0.4-1.1,1.1-1.1h2.5c0.4,0,0.7,0.1,0.9,0.2s0.4,0.4,0.4,0.9
			l0.4,3.2c1-1.1,2-2,2.9-2.6c0.9-0.6,1.8-1.1,2.8-1.4c1-0.3,2-0.5,3.1-0.5c0.5,0,0.9,0,1.4,0.1c0.6,0.1,1,0.4,1,1v3.1
			c0,0.7-0.3,1-1,1c-0.3,0-0.7,0-1-0.1s-0.7-0.1-1.1-0.1c-3,0-5.6,0.9-7.8,2.7v20.1c0,0.8-0.4,1.1-1.1,1.1H215.3z"/>
		<path class="st0" d="M246.5,42.9c-4.7,0-8.2-1.3-10.6-3.9c-2.4-2.6-3.6-6.4-3.6-11.4c0-4.8,1.2-8.6,3.6-11.2c2.4-2.7,5.7-4,10-4
			c3.6,0,6.4,1,8.3,3c1.9,2,2.9,4.9,2.9,8.6c0,1.2-0.1,2.4-0.3,3.7c-0.1,0.5-0.2,0.8-0.4,0.9s-0.4,0.2-0.8,0.2h-17.9
			c0.1,3.3,0.9,5.7,2.4,7.2c1.5,1.6,3.9,2.3,7.1,2.3c1.1,0,2.2-0.1,3.3-0.2c1-0.2,2.4-0.5,4-1c0.3-0.1,0.5-0.1,0.7-0.2
			c0.2-0.1,0.4-0.1,0.5-0.1c0.5,0,0.7,0.3,0.7,1v1.6c0,0.5-0.1,0.8-0.2,1.1c-0.2,0.2-0.5,0.4-1,0.7c-1.1,0.5-2.5,0.9-4.1,1.2
			C249.6,42.8,248.1,42.9,246.5,42.9z M251.9,25.1c0-0.3,0.1-0.8,0.1-1.5c0-2.3-0.5-4.1-1.6-5.2s-2.7-1.8-4.7-1.8
			c-2.4,0-4.2,0.7-5.6,2.1c-1.3,1.4-2.1,3.5-2.3,6.3H251.9z"/>
		<path class="st0" d="M271,42.9c-3.2,0-6-0.5-8.6-1.6c-0.5-0.2-0.8-0.4-0.9-0.6c-0.2-0.2-0.3-0.6-0.3-1.1V38c0-0.7,0.2-1,0.7-1
			c0.3,0,0.7,0.1,1.4,0.3c2.5,0.8,5.1,1.2,7.8,1.2c1.9,0,3.3-0.4,4.2-1.1c1-0.7,1.4-1.8,1.4-3.1c0-0.9-0.3-1.6-0.9-2.2
			c-0.6-0.6-1.7-1.1-3.2-1.7l-4.8-1.8c-4.2-1.6-6.3-4.2-6.3-8c0-2.5,1-4.5,2.9-6c1.9-1.5,4.4-2.3,7.5-2.3c2.5,0,4.9,0.4,7.2,1.3
			c0.5,0.2,0.8,0.4,1,0.6c0.2,0.2,0.3,0.6,0.3,1.1v1.5c0,0.7-0.2,1-0.7,1c-0.3,0-0.7-0.1-1.3-0.3c-2-0.6-4.1-0.9-6.1-0.9
			c-3.6,0-5.5,1.2-5.5,3.7c0,1,0.3,1.8,0.9,2.3c0.6,0.6,1.8,1.2,3.6,1.9l4.4,1.7c2.2,0.9,3.8,1.9,4.8,3.1c1,1.2,1.5,2.7,1.5,4.6
			c0,2.7-1,4.8-3,6.4S274.3,42.9,271,42.9z"/>
	</g>
	<g>
		<path class="st1" d="M197.5,68.9c-15.3,11.3-37.5,17.3-56.6,17.3c-26.8,0-50.9-9.9-69.1-26.4c-1.4-1.3-0.2-3.1,1.6-2.1
			c19.7,11.5,44,18.4,69.2,18.4c17,0,35.6-3.5,52.8-10.8C197.8,64.3,200,67.1,197.5,68.9z"/>
		<path class="st1" d="M203.8,61.7c-2-2.5-12.9-1.2-17.9-0.6c-1.5,0.2-1.7-1.1-0.4-2.1c8.8-6.2,23.1-4.4,24.8-2.3
			c1.7,2.1-0.4,16.5-8.7,23.3c-1.3,1.1-2.5,0.5-1.9-0.9C201.6,74.5,205.8,64.2,203.8,61.7z"/>
	</g>
</g>
</svg>
